<svg width="234" height="51" viewBox="0 0 234 51" fill="none" xmlns="http://www.w3.org/2000/svg">
<g filter="url(#filter0_d_162_120)">
<path d="M33.4328 16.3906C33.4328 17.2656 33.1203 18 32.4953 18.5937C31.9016 19.2188 31.1672 19.5312 30.2922 19.5312H11.5422C10.9484 19.5625 10.4484 19.7031 10.0422 19.9531C9.66719 20.1719 9.38594 20.4375 9.19844 20.75C9.01094 21.0312 8.91719 21.3281 8.91719 21.6406C8.91719 21.9531 9.01094 22.2656 9.19844 22.5781C9.38594 22.8594 9.66719 23.125 10.0422 23.375C10.4484 23.5938 10.9484 23.7188 11.5422 23.75H24.8547C27.0422 23.8125 28.8391 24.3281 30.2453 25.2969C31.6828 26.2344 32.6984 27.3281 33.2922 28.5781C33.9172 29.7969 34.2297 31.0469 34.2297 32.3281C34.2297 33.5781 33.9172 34.8281 33.2922 36.0781C32.6672 37.2969 31.6516 38.3906 30.2453 39.3594C28.8391 40.2969 27.0422 40.7656 24.8547 40.7656H24.5734C24.3859 40.7969 24.1984 40.8125 24.0109 40.8125H6.29219C5.41719 40.8125 4.66719 40.5156 4.04219 39.9219C3.44844 39.2969 3.15157 38.5469 3.15157 37.6719C3.15157 36.7969 3.46407 36.0625 4.08907 35.4688C4.68282 34.8438 5.41719 34.5312 6.29219 34.5312H25.1359C25.7297 34.5625 26.2141 34.4531 26.5891 34.2031C26.9953 33.9531 27.2922 33.6719 27.4797 33.3594C27.6672 33.0156 27.7609 32.6719 27.7609 32.3281C27.7609 32.1094 27.6672 31.8125 27.4797 31.4375C27.2922 31.0312 26.9953 30.7031 26.5891 30.4531C26.2141 30.2031 25.7297 30.0625 25.1359 30.0312H11.8234C9.63594 29.9688 7.82344 29.4688 6.38594 28.5312C4.97969 27.5938 3.96407 26.5312 3.33907 25.3438C2.74532 24.125 2.44844 22.8906 2.44844 21.6406C2.44844 20.4219 2.76094 19.2188 3.38594 18.0312C4.01094 16.8125 5.02657 15.7344 6.43282 14.7969C7.83907 13.8594 9.63594 13.3594 11.8234 13.2969H12.1047C12.2922 13.2656 12.4797 13.25 12.6672 13.25L30.2922 13.25C31.1672 13.25 31.9016 13.5625 32.4953 14.1875C33.1203 14.7812 33.4328 15.5156 33.4328 16.3906ZM76.9984 13.25H79.1547L95.0922 13.25C95.9672 13.2812 96.6859 13.6094 97.2484 14.2344C97.8422 14.8594 98.1391 15.6094 98.1391 16.4844C97.9828 18.3594 96.9672 19.375 95.0922 19.5312H78.5922C77.4047 19.5937 76.4203 20.0469 75.6391 20.8906C74.8578 21.7344 74.2797 22.7031 73.9047 23.7969C73.5609 24.8594 73.3891 25.9531 73.3891 27.0781C73.3891 28.2031 73.5609 29.3125 73.9047 30.4062C74.2797 31.4687 74.8578 32.4219 75.6391 33.2656C76.4203 34.1094 77.4047 34.5625 78.5922 34.625H95.0922C95.9672 34.6562 96.6859 34.9844 97.2484 35.6094C97.8422 36.2344 98.1391 36.9844 98.1391 37.8594C98.1078 38.7031 97.7953 39.4219 97.2016 40.0156C96.6391 40.5781 95.9359 40.875 95.0922 40.9062H77.8891H76.9984C74.8109 40.7812 72.9984 39.9531 71.5609 38.4219C70.1547 36.8594 69.1391 35.0937 68.5141 33.125C67.9203 31.1562 67.6234 29.1406 67.6234 27.0781C67.6234 25.0156 67.9359 23 68.5609 21.0312C69.1859 19.0625 70.2016 17.3125 71.6078 15.7812C73.0141 14.2187 74.8109 13.375 76.9984 13.25ZM98.0453 26.8906C98.0453 27.7656 97.7328 28.5 97.1078 29.0937C96.5141 29.7187 95.7797 30.0312 94.9047 30.0312H80.7484C79.8734 30.0312 79.1234 29.7344 78.4984 29.1406C77.9047 28.5156 77.6078 27.7656 77.6078 26.8906C77.6078 26.0156 77.9047 25.2656 78.4984 24.6406C79.1234 24.0469 79.8734 23.75 80.7484 23.75H94.9047C95.7797 23.75 96.5141 24.0625 97.1078 24.6875C97.7328 25.2812 98.0453 26.0156 98.0453 26.8906ZM140.345 13.25H142.502L158.439 13.25C159.314 13.2812 160.033 13.6094 160.595 14.2344C161.189 14.8594 161.486 15.6094 161.486 16.4844C161.33 18.3594 160.314 19.375 158.439 19.5312H141.939C140.752 19.5937 139.767 20.0469 138.986 20.8906C138.205 21.7344 137.627 22.7031 137.252 23.7969C136.908 24.8594 136.736 25.9531 136.736 27.0781C136.736 28.2031 136.908 29.3125 137.252 30.4062C137.627 31.4687 138.205 32.4219 138.986 33.2656C139.767 34.1094 140.752 34.5625 141.939 34.625H158.439C159.314 34.6562 160.033 34.9844 160.595 35.6094C161.189 36.2344 161.486 36.9844 161.486 37.8594C161.455 38.7031 161.142 39.4219 160.548 40.0156C159.986 40.5781 159.283 40.875 158.439 40.9062H141.236H140.345C138.158 40.7812 136.345 39.9531 134.908 38.4219C133.502 36.8594 132.486 35.0937 131.861 33.125C131.267 31.1562 130.97 29.1406 130.97 27.0781C130.97 25.0156 131.283 23 131.908 21.0312C132.533 19.0625 133.548 17.3125 134.955 15.7812C136.361 14.2187 138.158 13.375 140.345 13.25ZM161.392 26.8906C161.392 27.7656 161.08 28.5 160.455 29.0937C159.861 29.7187 159.127 30.0312 158.252 30.0312H144.095C143.22 30.0312 142.47 29.7344 141.845 29.1406C141.252 28.5156 140.955 27.7656 140.955 26.8906C140.955 26.0156 141.252 25.2656 141.845 24.6406C142.47 24.0469 143.22 23.75 144.095 23.75H158.252C159.127 23.75 159.861 24.0625 160.455 24.6875C161.08 25.2812 161.392 26.0156 161.392 26.8906ZM215.317 13.25C217.505 13.375 219.302 14.2187 220.708 15.7812C222.114 17.3125 223.13 19.0625 223.755 21.0312C224.38 23 224.692 25.0156 224.692 27.0781C224.692 29.1406 224.38 31.1562 223.755 33.125C223.161 35.0937 222.145 36.8594 220.708 38.4219C219.302 39.9531 217.505 40.7812 215.317 40.9062H198.067C197.223 40.875 196.505 40.5781 195.911 40.0156C195.348 39.4219 195.052 38.7031 195.02 37.8594V26.2344C195.052 25.3594 195.38 24.6406 196.005 24.0781C196.63 23.4844 197.38 23.1875 198.255 23.1875C199.098 23.2187 199.817 23.5312 200.411 24.125C201.005 24.6875 201.317 25.3906 201.348 26.2344V33.3594C201.348 34.2031 201.786 34.625 202.661 34.625H213.723C214.911 34.5625 215.895 34.1094 216.677 33.2656C217.458 32.4219 218.02 31.4687 218.364 30.4062C218.739 29.3125 218.927 28.2031 218.927 27.0781C218.927 25.9531 218.739 24.8594 218.364 23.7969C218.02 22.7031 217.458 21.7344 216.677 20.8906C215.895 20.0469 214.911 19.5937 213.723 19.5312H198.067C196.192 19.375 195.177 18.3594 195.02 16.4844C195.02 15.6094 195.302 14.8594 195.864 14.2344C196.458 13.6094 197.192 13.2812 198.067 13.25L215.317 13.25Z" fill="#4D64E9"/>
</g>
<defs>
<filter id="filter0_d_162_120" x="2.44824" y="13.25" width="231.244" height="35.6562" filterUnits="userSpaceOnUse" color-interpolation-filters="sRGB">
<feFlood flood-opacity="0" result="BackgroundImageFix"/>
<feColorMatrix in="SourceAlpha" type="matrix" values="0 0 0 0 0 0 0 0 0 0 0 0 0 0 0 0 0 0 127 0" result="hardAlpha"/>
<feOffset dx="5" dy="4"/>
<feGaussianBlur stdDeviation="2"/>
<feComposite in2="hardAlpha" operator="out"/>
<feColorMatrix type="matrix" values="0 0 0 0 0 0 0 0 0 0 0 0 0 0 0 0 0 0 0.25 0"/>
<feBlend mode="normal" in2="BackgroundImageFix" result="effect1_dropShadow_162_120"/>
<feBlend mode="normal" in="SourceGraphic" in2="effect1_dropShadow_162_120" result="shape"/>
</filter>
</defs>
</svg>
